<svg width="31" height="31" viewBox="0 0 31 31" fill="none" xmlns="http://www.w3.org/2000/svg">
<g clip-path="url(#clip0_3_3942)">
<path d="M19.747 6.92871C20.968 7.16692 22.09 7.76403 22.9696 8.64363C23.8492 9.52323 24.4463 10.6453 24.6845 11.8662L19.747 6.92871ZM19.747 1.92871C22.2836 2.21051 24.649 3.34643 26.4549 5.14997C28.2607 6.95351 29.3996 9.31747 29.6846 11.8537L19.747 1.92871ZM28.4346 21.8287V25.5787C28.436 25.9268 28.3647 26.2714 28.2252 26.5904C28.0857 26.9094 27.8812 27.1957 27.6246 27.431C27.3681 27.6664 27.0653 27.8456 26.7355 27.9571C26.4057 28.0686 26.0563 28.11 25.7095 28.0787C21.8631 27.6608 18.1683 26.3464 14.922 24.2412C11.9018 22.322 9.34122 19.7614 7.42205 16.7412C5.30952 13.4802 3.99485 9.76745 3.58455 5.90371C3.55331 5.55804 3.59439 5.20966 3.70517 4.88074C3.81596 4.55182 3.99401 4.24957 4.22801 3.99324C4.462 3.7369 4.7468 3.5321 5.06429 3.39186C5.38177 3.25163 5.72497 3.17904 6.07205 3.17871H9.82205C10.4287 3.17274 11.0168 3.38756 11.4768 3.78313C11.9367 4.17869 12.2371 4.72802 12.322 5.32871C12.4803 6.52879 12.7739 7.70712 13.197 8.84121C13.3652 9.28862 13.4016 9.77485 13.3019 10.2423C13.2022 10.7098 12.9706 11.1388 12.6345 11.4787L11.047 13.0662C12.8265 16.1956 15.4176 18.7868 18.547 20.5662L20.1345 18.9787C20.4744 18.6426 20.9035 18.411 21.3709 18.3113C21.8384 18.2116 22.3246 18.248 22.772 18.4162C23.9061 18.8394 25.0845 19.1329 26.2846 19.2912C26.8918 19.3769 27.4463 19.6827 27.8427 20.1506C28.2391 20.6184 28.4498 21.2157 28.4346 21.8287Z" stroke="#486A6F" stroke-width="2" stroke-linecap="round" stroke-linejoin="round"/>
</g>
<defs>
<clipPath id="clip0_3_3942">
<rect width="30" height="30" fill="white" transform="translate(0.93457 0.678711)"/>
</clipPath>
</defs>
</svg>
