<svg width="57" height="38" viewBox="0 0 57 38" fill="none" xmlns="http://www.w3.org/2000/svg">
<path d="M56.9999 9.80778C56.9985 8.93269 56.7442 8.04486 56.1812 7.31325L51.665 1.46824C50.9087 0.496741 49.7575 0.00233964 48.6072 0C47.9227 0 47.2256 0.177755 46.6097 0.566171L42.2061 3.33724C41.743 3.6361 40.9487 3.84081 40.182 3.83578C39.5861 3.83853 39.0105 3.71789 38.6301 3.52779L34.3177 1.41521C33.6219 1.07661 32.8466 0.937693 32.0668 0.936313C30.9468 0.941339 29.8128 1.22009 28.9015 1.85892L28.3982 2.2158C27.9961 2.01291 27.3812 1.70355 26.6851 1.35306C25.8501 0.93905 24.8684 0.771802 23.8767 0.768608C22.9808 0.77135 22.0854 0.910718 21.2988 1.24704L18.3616 2.51466C17.8836 2.72441 17.1232 2.86103 16.3678 2.85784C15.6124 2.86104 14.8534 2.72441 14.3753 2.51466L11.4355 1.24657C10.8992 1.01535 10.3259 0.916191 9.75794 0.915735C9.10374 0.916192 8.45364 1.04689 7.84908 1.29456C7.24547 1.5436 6.6853 1.911 6.23886 2.41548L0.886438 8.47843C0.293227 9.14788 -0.00134859 9.99194 4.64101e-06 10.8226C-0.00135067 11.8133 0.417921 12.8068 1.22624 13.5032L6.21953 17.8118L3.85034 20.3109C3.1975 21 2.8722 21.8938 2.8722 22.7776C2.87085 23.7176 3.23997 24.6671 3.97143 25.3658L4.45213 25.8278C4.90484 26.2619 5.4488 26.5384 6.01806 26.686C5.73252 27.2175 5.5762 27.7996 5.57755 28.3832C5.5762 29.3241 5.94532 30.2727 6.67543 30.9723L6.67407 30.9719L7.15614 31.4357C7.84198 32.0933 8.73155 32.4209 9.60757 32.4204C10.0783 32.4209 10.55 32.3254 10.9928 32.138C11.1483 32.776 11.4695 33.3829 11.9746 33.8676L12.4567 34.3314C13.1425 34.989 14.0307 35.3166 14.9081 35.3162C15.5939 35.3167 16.2834 35.1124 16.8766 34.7153C17.0501 35.2801 17.3474 35.8152 17.8001 36.2502L18.2822 36.714C18.9667 37.3716 19.8562 37.6992 20.7323 37.6988C21.6657 37.6992 22.6082 37.3286 23.3044 36.5938L25.3976 34.3831L28.2417 37.0454C28.9226 37.6842 29.7963 38.0018 30.6588 38C31.6062 38.0018 32.5622 37.618 33.2597 36.8626L33.7138 36.3705C34.1055 35.9446 34.3617 35.441 34.5099 34.9151L35.6118 35.9437C36.294 36.5798 37.1664 36.896 38.0276 36.8956C38.9764 36.896 39.9351 36.5122 40.6331 35.7564L41.0844 35.2651C41.6058 34.7017 41.899 34.0039 41.9898 33.2915C42.2808 33.3669 42.5754 33.4181 42.8726 33.4181C43.8214 33.4181 44.7775 33.0347 45.4764 32.2794L45.9291 31.7881C46.5621 31.1022 46.8765 30.2225 46.8752 29.3552C46.8752 29.0861 46.8368 28.8178 46.778 28.5533C47.5651 28.4477 48.3281 28.0927 48.9083 27.4625L49.3623 26.9704C49.9953 26.2845 50.3084 25.4048 50.3084 24.5366C50.3097 23.5815 49.9289 22.6178 49.1775 21.9154L48.3286 21.1222L55.992 12.5523C56.6815 11.7791 56.9986 10.7856 57 9.80778L56.9999 9.80778ZM5.30891 23.9544C4.97594 23.6359 4.81148 23.2123 4.81013 22.7773C4.81148 22.3693 4.95605 21.9708 5.25334 21.6573L10.1047 16.537C10.421 16.2034 10.8425 16.0367 11.2753 16.0357C11.6801 16.0362 12.0759 16.1838 12.3885 16.4817L12.8679 16.9442C12.8679 16.9442 13.364 17.6863 13.3653 18.1222C13.364 18.4485 13.2668 18.766 13.0784 19.0411C13.0622 19.0576 7.84249 24.5599 7.84249 24.5599C7.56509 24.7582 7.23753 24.8606 6.9041 24.8619C6.49794 24.8606 6.1008 24.7139 5.79087 24.4164L5.30891 23.9544ZM9.6087 30.4689C9.20254 30.4685 8.80676 30.3209 8.49547 30.0234L8.0134 29.56L8.01204 29.5596C7.68177 29.2424 7.51596 28.8175 7.51596 28.3825C7.51596 27.9744 7.66189 27.576 7.95782 27.2625C7.95782 27.2625 14.4244 20.4542 14.4786 20.3884C14.7877 20.0877 15.1857 19.9323 15.5973 19.9319C16.0035 19.9323 16.3992 20.0795 16.7105 20.3774L17.1926 20.8412C17.5242 21.1584 17.6887 21.5829 17.69 22.0183C17.6887 22.4264 17.5432 22.8253 17.2468 23.1392L10.7775 29.9695C10.4626 30.3012 10.0415 30.4676 9.6087 30.4689ZM14.9097 33.3647C14.5035 33.3642 14.1077 33.2166 13.7964 32.9187L13.3134 32.4553C12.9818 32.1378 12.816 31.7132 12.816 31.2783C12.816 30.9141 12.9384 30.5608 13.1729 30.267L17.6765 25.5128C17.9801 25.2358 18.361 25.0896 18.7554 25.0896C19.1616 25.0901 19.5574 25.2372 19.8686 25.5351L20.3516 25.999C20.6819 26.3161 20.8477 26.7406 20.849 27.1757C20.8477 27.5847 20.7009 27.9836 20.4058 28.2966L16.0781 32.8644C15.7636 33.1971 15.3425 33.3633 14.9097 33.3647ZM21.9021 35.2465C21.5872 35.5791 21.1657 35.7455 20.7329 35.7468C20.3268 35.7464 19.931 35.5988 19.6197 35.3008L19.1376 34.8375C18.8073 34.5204 18.6415 34.0954 18.6402 33.6604C18.6415 33.2514 18.787 32.8525 19.0834 32.5404L21.8145 29.6561C22.1308 29.3234 22.5523 29.1562 22.9851 29.1557C23.3899 29.1562 23.787 29.3033 24.0983 29.6017L24.5813 30.0651C24.9116 30.3822 25.076 30.8067 25.0774 31.2418C25.076 31.6508 24.9305 32.0497 24.6342 32.3627L21.9021 35.2465ZM47.9442 25.642L47.4915 26.1332C47.1753 26.475 46.7465 26.6482 46.3074 26.6487C45.9089 26.6482 45.519 26.5066 45.2095 26.2169L37.58 19.0805L36.2608 20.5094L44.4274 28.1617C44.7676 28.4802 44.9384 28.9125 44.9411 29.3538C44.9384 29.756 44.7979 30.1481 44.511 30.4597L44.0597 30.9509C43.7434 31.2927 43.3146 31.465 42.8755 31.4664C42.477 31.465 42.0858 31.3229 41.779 31.0355L34.1468 23.8991L32.8289 25.328L39.6018 31.6628C39.9285 31.979 40.0952 32.4004 40.0952 32.8326C40.0952 33.2334 39.9547 33.6259 39.6678 33.9371L39.2151 34.4284C38.9002 34.7702 38.4701 34.9433 38.03 34.9447C37.6302 34.9434 37.2403 34.8012 36.9321 34.5138L30.1728 28.2018H30.1715L30.1701 28.2004L28.8545 29.6316L28.8558 29.633L28.8811 29.6572L32.2665 32.8176C32.5665 33.1292 32.7219 33.5291 32.7233 33.9422C32.7219 34.3411 32.5828 34.7313 32.2959 35.0425L31.8432 35.5347C31.5269 35.8765 31.0995 36.0483 30.6617 36.0497C30.2632 36.0483 29.8733 35.9066 29.5652 35.6178L26.6177 32.8573C26.8743 32.3482 27.0175 31.7962 27.0175 31.2419C27.0189 30.3019 26.6498 29.3537 25.9197 28.6536L25.4367 28.1898C24.7522 27.5327 23.8639 27.2046 22.9879 27.206C22.9197 27.206 22.8515 27.2215 22.7846 27.2256C22.7846 27.2092 22.7887 27.1923 22.7887 27.1758C22.79 26.2359 21.6908 24.5862 21.6908 24.5862L21.2087 24.1238C20.6964 23.6325 20.0716 23.3259 19.421 23.2025C19.5552 22.8187 19.6306 22.4188 19.6306 22.0185C19.6306 21.0786 19.2629 20.1299 18.5327 19.4303L18.0507 18.9665C17.3648 18.3089 16.4767 17.9804 15.6005 17.9813C15.498 17.9813 15.3972 18.0023 15.2956 18.0115C15.2676 17.1085 14.9084 16.2064 14.2085 15.5347V15.5343L13.7278 15.0723C13.042 14.4138 12.1538 14.0857 11.2777 14.0861C10.3429 14.0857 9.40178 14.4563 8.70562 15.1911L7.56032 16.3997L2.48757 12.0239C2.12297 11.7081 1.94089 11.2717 1.93954 10.8239C1.94089 10.4487 2.06695 10.0809 2.33667 9.77563L7.68909 3.71269C7.90143 3.47141 8.21588 3.25344 8.58365 3.10218C8.95141 2.95092 9.36933 2.86776 9.75968 2.86822C10.0999 2.86822 10.4189 2.93036 10.6741 3.04187L13.6126 4.30995C14.4412 4.66318 15.4027 4.80804 16.369 4.81124C17.3368 4.80804 18.2973 4.66319 19.1254 4.30995L22.0626 3.04233C22.5153 2.84264 23.1989 2.71881 23.8779 2.72154C24.6293 2.71697 25.382 2.87417 25.8183 3.09946C26.0957 3.23883 26.3587 3.37134 26.6027 3.49518L23.6073 5.62507C22.645 6.30961 22.1258 7.39852 22.1272 8.4971C22.1258 9.22412 22.354 9.96441 22.8175 10.5927L22.8162 10.5913L23.212 11.1292C23.9633 12.1395 25.1348 12.6586 26.3059 12.6614C26.9673 12.6614 27.6409 12.4924 28.2413 12.1282L30.0327 11.0401C30.3982 10.8139 30.9498 10.6714 31.5204 10.6741C32.1909 10.67 32.8664 10.8706 33.2725 11.1726L38.2287 14.7667C39.3316 15.5659 41.1283 17.0483 42.1242 17.9814L47.8607 23.346C48.2009 23.665 48.3717 24.0954 48.373 24.5378C48.3735 24.9377 48.2316 25.3302 47.9443 25.6419L47.9442 25.642ZM54.5545 11.2462L46.9123 19.7931L43.4425 16.5492C42.3555 15.5343 40.5636 14.0547 39.3614 13.1814L34.4065 9.58738C33.5666 8.98557 32.5379 8.7251 31.5209 8.72145C30.6557 8.72419 29.7837 8.91474 29.0311 9.36804L27.241 10.4561C26.9663 10.6233 26.6424 10.7083 26.3063 10.7088C25.7054 10.7106 25.1036 10.4273 24.7679 9.96529L24.3734 9.4279L24.3721 9.42653C24.1624 9.14048 24.0644 8.81923 24.063 8.49432C24.0658 8.00309 24.2898 7.52603 24.7236 7.21618L30.0205 3.45216C30.4786 3.11675 31.2932 2.88142 32.0671 2.88736C32.6047 2.88462 33.1184 2.99429 33.4699 3.16977L37.7823 5.28235C38.5174 5.63924 39.3473 5.78546 40.1818 5.78729C41.2544 5.78226 42.3386 5.54601 43.2319 4.99126L47.6369 2.21937C47.918 2.04162 48.2555 1.95022 48.6074 1.95022C49.202 1.94885 49.7979 2.22165 50.1354 2.66628L54.6516 8.51129C54.9118 8.84624 55.0627 9.31828 55.0627 9.80768C55.0645 10.356 54.8734 10.8943 54.5545 11.2462Z" fill="#F4F7FF"/>
</svg>
