<svg width="49" height="45" viewBox="0 0 49 45" fill="none" xmlns="http://www.w3.org/2000/svg">
<path d="M24.5332 0.00032976C24.7904 0.0067058 25.0301 0.104308 25.2603 0.285777L48.5354 21.3798C49.0708 21.8737 49.1468 22.7845 48.7461 23.3794C48.3509 23.9656 47.5105 24.0597 47.0042 23.5992L24.4947 3.2083L1.98524 23.5992C1.47895 24.0597 0.661577 23.9621 0.262575 23.3794C-0.133484 22.8012 -0.0907617 21.8403 0.453982 21.3798L9.18225 13.4695V1.40652C9.18225 0.629621 9.73083 0.000379573 10.4076 0.000379573H15.3077C15.984 0.000379573 16.5326 0.629646 16.5326 1.40652V6.81199L23.7296 0.285777C24.0022 0.0797838 24.276 -0.00604867 24.5332 0.00032976ZM14.0822 2.81261H11.6325V11.2501L14.0822 9.0307V2.81261ZM39.8073 18.9181L42.2571 21.1375V43.5939C42.2571 44.3703 41.709 45 41.0327 45H30.6202C29.9435 45 29.3953 44.3702 29.3949 43.5939V36.5625C29.3949 33.422 27.2309 30.9373 24.4948 30.9373C21.7591 30.9373 19.5946 33.4215 19.5946 36.5625V43.5939C19.5946 44.3703 19.0465 45 18.3702 45H7.95731C7.28098 45 6.73242 44.3702 6.73242 43.5939V21.1375L9.18221 18.9181V42.1868H17.1448V36.5616C17.1448 31.9115 20.444 28.1242 24.4948 28.1242C28.5455 28.1242 31.8447 31.9115 31.8447 36.5616V42.1868H39.8073L39.8073 18.9181Z" fill="#F4F7FF"/>
</svg>
