<svg width="25" height="25" viewBox="0 0 25 25" fill="none" xmlns="http://www.w3.org/2000/svg">
    <path d="M17.9346 2.67871H7.93457C5.17315 2.67871 2.93457 4.91729 2.93457 7.67871V17.6787C2.93457 20.4401 5.17315 22.6787 7.93457 22.6787H17.9346C20.696 22.6787 22.9346 20.4401 22.9346 17.6787V7.67871C22.9346 4.91729 20.696 2.67871 17.9346 2.67871Z" stroke="#F4F7FF" stroke-width="2" stroke-linecap="round" stroke-linejoin="round"/>
    <path d="M16.9346 12.0488C17.058 12.881 16.9158 13.731 16.5283 14.4778C16.1408 15.2246 15.5277 15.8302 14.7762 16.2084C14.0247 16.5867 13.173 16.7184 12.3424 16.5847C11.5117 16.451 10.7443 16.0589 10.1494 15.4639C9.5545 14.869 9.16231 14.1016 9.02865 13.271C8.89499 12.4403 9.02665 11.5887 9.40491 10.8371C9.78317 10.0856 10.3888 9.47251 11.1356 9.08501C11.8824 8.69751 12.7323 8.55536 13.5646 8.67877C14.4135 8.80465 15.1994 9.20023 15.8063 9.80707C16.4131 10.4139 16.8087 11.1998 16.9346 12.0488Z" stroke="#F4F7FF" stroke-width="2" stroke-linecap="round" stroke-linejoin="round"/>
    <path d="M18.4346 7.17871H18.4446" stroke="#F4F7FF" stroke-width="2" stroke-linecap="round" stroke-linejoin="round"/>
</svg>
