<svg width="29" height="41" viewBox="0 0 29 41" fill="none" xmlns="http://www.w3.org/2000/svg">
<path d="M14.4806 18.3303C15.0031 18.3221 15.5225 18.2488 16.0269 18.1117V17.4015C16.0243 17.1031 16.1959 16.8307 16.4665 16.7045C16.7187 16.5908 16.9613 16.4558 17.191 16.3009C17.4462 16.1375 17.7714 16.1299 18.0342 16.2813L18.6708 16.6367C19.4526 15.8964 20.0146 14.9544 20.2946 13.9148L19.1913 13.2987C19.3044 12.7312 19.3044 12.1467 19.1913 11.5791L20.2943 10.963C20.0157 9.92286 19.4549 8.98058 18.6737 8.23943L18.0342 8.59657C17.7715 8.74796 17.4462 8.74036 17.191 8.57699C16.9613 8.42209 16.7187 8.28706 16.4665 8.17308C16.1959 8.04712 16.0243 7.77473 16.0269 7.47633V6.76321C14.9631 6.47358 13.8414 6.47475 12.7781 6.76614V7.47633C12.7808 7.77473 12.6089 8.04712 12.3386 8.17309C12.0861 8.28707 11.8438 8.42209 11.6143 8.57699C11.3589 8.74037 11.0336 8.74826 10.7709 8.59686L10.1344 8.24147C9.35258 8.98177 8.79054 9.92341 8.51056 10.963L9.61385 11.5791C9.50074 12.1467 9.50074 12.7312 9.61385 13.2988L8.51086 13.9149C8.78939 14.955 9.35026 15.8973 10.1311 16.6384L10.7706 16.2813C11.0334 16.1302 11.3589 16.1375 11.6143 16.3009C11.8438 16.4558 12.0861 16.5908 12.3386 16.7045C12.6089 16.8307 12.7808 17.1031 12.7778 17.4015V18.1146C13.3329 18.2643 13.9057 18.3368 14.4806 18.3303ZM11.7839 12.4389C11.7839 11.7445 12.0598 11.0784 12.5508 10.5871C13.0421 10.0961 13.7081 9.82025 14.4025 9.82025C15.0969 9.82025 15.7631 10.0961 16.2543 10.5871C16.7453 11.0784 17.0212 11.7445 17.0212 12.4389C17.0212 13.1333 16.7453 13.7994 16.2543 14.2907C15.763 14.7817 15.0969 15.0576 14.4025 15.0576C13.7081 15.0576 13.042 14.7817 12.5508 14.2907C12.0598 13.7994 11.7839 13.1333 11.7839 12.4389Z" fill="#F4F7FF"/>
<path d="M14.4027 40.5898C22.3575 40.5898 28.8054 37.9518 28.8054 34.6977C28.8054 32.053 24.5465 29.8155 18.6816 29.0702C22.7683 23.8157 26.8414 18.205 26.8414 11.784C26.8414 5.27595 21.2723 0 14.4027 0C7.53309 0 1.964 5.27595 1.964 11.784C1.964 18.5379 5.84876 23.874 10.0026 29.0867C4.20087 29.8474 0 32.0713 0 34.6975C0 37.9516 6.44821 40.5898 14.4027 40.5898ZM5.89201 12.4391C5.89201 10.1819 6.78864 8.01709 8.38468 6.42105C9.98072 4.82501 12.1455 3.92838 14.4027 3.92838C16.6598 3.92838 18.8246 4.82501 20.4207 6.42105C22.0167 8.01709 22.9134 10.1819 22.9134 12.4391C22.9134 14.6962 22.0167 16.861 20.4207 18.4571C18.8246 20.0531 16.6598 20.9497 14.4027 20.9497C12.1455 20.9497 9.98072 20.0531 8.38468 18.4571C6.78864 16.861 5.89201 14.6962 5.89201 12.4391ZM11.7051 31.2127C12.6283 32.3671 13.5408 33.5242 14.4027 34.6979C15.2146 33.5443 16.1033 32.3802 17.0199 31.2013C19.8943 31.6172 21.9471 32.6942 21.9471 33.9615C21.9471 35.5885 18.5694 36.9075 14.4031 36.9075C10.2368 36.9075 6.85904 35.5885 6.85904 33.9615C6.85875 32.7062 8.8728 31.637 11.7051 31.2127Z" fill="#F4F7FF"/>
</svg>
