<svg width="31" height="31" viewBox="0 0 31 31" fill="none" xmlns="http://www.w3.org/2000/svg">
<g clip-path="url(#clip0_1_195)">
<path d="M18.1458 10.0538V24.5521C18.1458 24.7064 18.1839 24.8584 18.2567 24.9945C18.3296 25.1305 18.4349 25.2465 18.5633 25.3321L19.8514 26.1909C19.9764 26.2742 20.1196 26.3263 20.269 26.3427C20.4183 26.3592 20.5694 26.3395 20.7095 26.2853C20.8496 26.2311 20.9747 26.1441 21.0741 26.0314C21.1736 25.9188 21.2445 25.784 21.281 25.6382L22.8333 19.4288" stroke="#F4F7FF" stroke-width="3" stroke-linecap="round" stroke-linejoin="round"/>
<path d="M22.8333 19.4288C24.0765 19.4288 25.2688 18.9349 26.1479 18.0558C27.027 17.1768 27.5208 15.9845 27.5208 14.7413C27.5208 13.4981 27.027 12.3058 26.1479 11.4267C25.2688 10.5476 24.0765 10.0538 22.8333 10.0538H18.1458C18.1458 10.0538 11.7648 10.0538 5.6242 4.90367C5.48764 4.78873 5.32109 4.71517 5.14414 4.69165C4.9672 4.66812 4.78722 4.69562 4.62536 4.77089C4.46351 4.84616 4.32652 4.96609 4.23049 5.11656C4.13447 5.26703 4.08341 5.4418 4.08331 5.6203V23.8623C4.08341 24.0408 4.13447 24.2155 4.23049 24.366C4.32652 24.5165 4.46351 24.6364 4.62536 24.7117C4.78722 24.7869 4.9672 24.8144 5.14414 24.7909C5.32109 24.7674 5.48764 24.6938 5.6242 24.5789C11.7648 19.4288 18.1458 19.4288 18.1458 19.4288H22.8333Z" stroke="#F4F7FF" stroke-width="3" stroke-linecap="round" stroke-linejoin="round"/>
</g>
<defs>
<clipPath id="clip0_1_195">
<rect width="30" height="30" fill="white" transform="translate(0.333313 0.678833)"/>
</clipPath>
</defs>
</svg>
